<svg xmlns="http://www.w3.org/2000/svg" xmlns:xlink="http://www.w3.org/1999/xlink" version="1.1" class="marks" width="845" height="447" viewBox="0 0 845 447"><rect width="845" height="447" fill="white"/><g fill="none" stroke-miterlimit="10" transform="translate(39,10)"><g class="mark-group role-frame root" role="graphics-object" aria-roledescription="group mark container"><g transform="translate(0,0)"><path class="background" aria-hidden="true" d="M0.5,0.5h800v400h-800Z" stroke="#ddd"/><g><g class="mark-group role-axis" aria-hidden="true"><g transform="translate(0.5,0.5)"><path class="background" aria-hidden="true" d="M0,0h0v0h0Z" pointer-events="none"/><g><g class="mark-rule role-axis-grid" pointer-events="none"><line transform="translate(0,400)" x2="800" y2="0" stroke="#ddd" stroke-width="1" opacity="1"/><line transform="translate(0,364)" x2="800" y2="0" stroke="#ddd" stroke-width="1" opacity="1"/><line transform="translate(0,327)" x2="800" y2="0" stroke="#ddd" stroke-width="1" opacity="1"/><line transform="translate(0,291)" x2="800" y2="0" stroke="#ddd" stroke-width="1" opacity="1"/><line transform="translate(0,255)" x2="800" y2="0" stroke="#ddd" stroke-width="1" opacity="1"/><line transform="translate(0,218)" x2="800" y2="0" stroke="#ddd" stroke-width="1" opacity="1"/><line transform="translate(0,182)" x2="800" y2="0" stroke="#ddd" stroke-width="1" opacity="1"/><line transform="translate(0,145)" x2="800" y2="0" stroke="#ddd" stroke-width="1" opacity="1"/><line transform="translate(0,109)" x2="800" y2="0" stroke="#ddd" stroke-width="1" opacity="1"/><line transform="translate(0,73)" x2="800" y2="0" stroke="#ddd" stroke-width="1" opacity="1"/><line transform="translate(0,36)" x2="800" y2="0" stroke="#ddd" stroke-width="1" opacity="1"/><line transform="translate(0,0)" x2="800" y2="0" stroke="#ddd" stroke-width="1" opacity="1"/></g></g><path class="foreground" aria-hidden="true" d="" pointer-events="none" display="none"/></g></g><g class="mark-group role-axis" role="graphics-symbol" aria-roledescription="axis" aria-label="X-axis titled 'L1 (binned)' for a linear scale with values from 825 to 875"><g transform="translate(0.5,400.5)"><path class="background" aria-hidden="true" d="M0,0h0v0h0Z" pointer-events="none"/><g><g class="mark-rule role-axis-tick" pointer-events="none"><line transform="translate(0,0)" x2="0" y2="5" stroke="#888" stroke-width="1" opacity="1"/><line transform="translate(80,0)" x2="0" y2="5" stroke="#888" stroke-width="1" opacity="1"/><line transform="translate(160,0)" x2="0" y2="5" stroke="#888" stroke-width="1" opacity="1"/><line transform="translate(240,0)" x2="0" y2="5" stroke="#888" stroke-width="1" opacity="1"/><line transform="translate(320,0)" x2="0" y2="5" stroke="#888" stroke-width="1" opacity="1"/><line transform="translate(400,0)" x2="0" y2="5" stroke="#888" stroke-width="1" opacity="1"/><line transform="translate(480,0)" x2="0" y2="5" stroke="#888" stroke-width="1" opacity="1"/><line transform="translate(560,0)" x2="0" y2="5" stroke="#888" stroke-width="1" opacity="1"/><line transform="translate(640,0)" x2="0" y2="5" stroke="#888" stroke-width="1" opacity="1"/><line transform="translate(720,0)" x2="0" y2="5" stroke="#888" stroke-width="1" opacity="1"/><line transform="translate(800,0)" x2="0" y2="5" stroke="#888" stroke-width="1" opacity="1"/></g><g class="mark-text role-axis-label" pointer-events="none"><text text-anchor="start" transform="translate(0,15)" font-family="sans-serif" font-size="10px" fill="#000" opacity="1">825.0</text><text text-anchor="middle" transform="translate(80,15)" font-family="sans-serif" font-size="10px" fill="#000" opacity="1">830.0</text><text text-anchor="middle" transform="translate(160,15)" font-family="sans-serif" font-size="10px" fill="#000" opacity="1">835.0</text><text text-anchor="middle" transform="translate(240,15)" font-family="sans-serif" font-size="10px" fill="#000" opacity="1">840.0</text><text text-anchor="middle" transform="translate(320,15)" font-family="sans-serif" font-size="10px" fill="#000" opacity="1">845.0</text><text text-anchor="middle" transform="translate(400,15)" font-family="sans-serif" font-size="10px" fill="#000" opacity="1">850.0</text><text text-anchor="middle" transform="translate(480,15)" font-family="sans-serif" font-size="10px" fill="#000" opacity="1">855.0</text><text text-anchor="middle" transform="translate(560,15)" font-family="sans-serif" font-size="10px" fill="#000" opacity="1">860.0</text><text text-anchor="middle" transform="translate(640,15)" font-family="sans-serif" font-size="10px" fill="#000" opacity="1">865.0</text><text text-anchor="middle" transform="translate(720,15)" font-family="sans-serif" font-size="10px" fill="#000" opacity="1">870.0</text><text text-anchor="end" transform="translate(800,15)" font-family="sans-serif" font-size="10px" fill="#000" opacity="1">875.0</text></g><g class="mark-rule role-axis-domain" pointer-events="none"><line transform="translate(0,0)" x2="800" y2="0" stroke="#888" stroke-width="1" opacity="1"/></g><g class="mark-text role-axis-title" pointer-events="none"><text text-anchor="middle" transform="translate(400,30)" font-family="sans-serif" font-size="11px" font-weight="bold" fill="#000" opacity="1">L1 (binned)</text></g></g><path class="foreground" aria-hidden="true" d="" pointer-events="none" display="none"/></g></g><g class="mark-group role-axis" role="graphics-symbol" aria-roledescription="axis" aria-label="Y-axis titled 'Count of Records' for a linear scale with values from 0 to 11"><g transform="translate(0.5,0.5)"><path class="background" aria-hidden="true" d="M0,0h0v0h0Z" pointer-events="none"/><g><g class="mark-rule role-axis-tick" pointer-events="none"><line transform="translate(0,400)" x2="-5" y2="0" stroke="#888" stroke-width="1" opacity="1"/><line transform="translate(0,364)" x2="-5" y2="0" stroke="#888" stroke-width="1" opacity="1"/><line transform="translate(0,327)" x2="-5" y2="0" stroke="#888" stroke-width="1" opacity="1"/><line transform="translate(0,291)" x2="-5" y2="0" stroke="#888" stroke-width="1" opacity="1"/><line transform="translate(0,255)" x2="-5" y2="0" stroke="#888" stroke-width="1" opacity="1"/><line transform="translate(0,218)" x2="-5" y2="0" stroke="#888" stroke-width="1" opacity="1"/><line transform="translate(0,182)" x2="-5" y2="0" stroke="#888" stroke-width="1" opacity="1"/><line transform="translate(0,145)" x2="-5" y2="0" stroke="#888" stroke-width="1" opacity="1"/><line transform="translate(0,109)" x2="-5" y2="0" stroke="#888" stroke-width="1" opacity="1"/><line transform="translate(0,73)" x2="-5" y2="0" stroke="#888" stroke-width="1" opacity="1"/><line transform="translate(0,36)" x2="-5" y2="0" stroke="#888" stroke-width="1" opacity="1"/><line transform="translate(0,0)" x2="-5" y2="0" stroke="#888" stroke-width="1" opacity="1"/></g><g class="mark-text role-axis-label" pointer-events="none"><text text-anchor="end" transform="translate(-7,403)" font-family="sans-serif" font-size="10px" fill="#000" opacity="1">0</text><text text-anchor="end" transform="translate(-7,366.6363636363636)" font-family="sans-serif" font-size="10px" fill="#000" opacity="1">1</text><text text-anchor="end" transform="translate(-7,330.27272727272725)" font-family="sans-serif" font-size="10px" fill="#000" opacity="1">2</text><text text-anchor="end" transform="translate(-7,293.90909090909093)" font-family="sans-serif" font-size="10px" fill="#000" opacity="1">3</text><text text-anchor="end" transform="translate(-7,257.5454545454545)" font-family="sans-serif" font-size="10px" fill="#000" opacity="1">4</text><text text-anchor="end" transform="translate(-7,221.18181818181816)" font-family="sans-serif" font-size="10px" fill="#000" opacity="1">5</text><text text-anchor="end" transform="translate(-7,184.81818181818184)" font-family="sans-serif" font-size="10px" fill="#000" opacity="1">6</text><text text-anchor="end" transform="translate(-7,148.45454545454547)" font-family="sans-serif" font-size="10px" fill="#000" opacity="1">7</text><text text-anchor="end" transform="translate(-7,112.09090909090908)" font-family="sans-serif" font-size="10px" fill="#000" opacity="1">8</text><text text-anchor="end" transform="translate(-7,75.7272727272727)" font-family="sans-serif" font-size="10px" fill="#000" opacity="1">9</text><text text-anchor="end" transform="translate(-7,39.363636363636374)" font-family="sans-serif" font-size="10px" fill="#000" opacity="1">10</text><text text-anchor="end" transform="translate(-7,3)" font-family="sans-serif" font-size="10px" fill="#000" opacity="1">11</text></g><g class="mark-rule role-axis-domain" pointer-events="none"><line transform="translate(0,400)" x2="0" y2="-400" stroke="#888" stroke-width="1" opacity="1"/></g><g class="mark-text role-axis-title" pointer-events="none"><text text-anchor="middle" transform="translate(-22.123046875,200) rotate(-90) translate(0,-2)" font-family="sans-serif" font-size="11px" font-weight="bold" fill="#000" opacity="1">Count of Records</text></g></g><path class="foreground" aria-hidden="true" d="" pointer-events="none" display="none"/></g></g><g class="mark-rect role-mark marks" clip-path="url(#clip13)" role="graphics-object" aria-roledescription="rect mark container"><path aria-label="L1 (binned): 850 – 855; Count of Records: 11" role="graphics-symbol" aria-roledescription="bar" d="M401,0h79v400h-79Z" fill="#4c78a8"/><path aria-label="L1 (binned): 840 – 845; Count of Records: 9" role="graphics-symbol" aria-roledescription="bar" d="M241,72.7272727272727h79v327.2727272727273h-79Z" fill="#4c78a8"/><path aria-label="L1 (binned): 825 – 830; Count of Records: 2" role="graphics-symbol" aria-roledescription="bar" d="M1,327.27272727272725h79v72.72727272727275h-79Z" fill="#4c78a8"/><path aria-label="L1 (binned): 830 – 835; Count of Records: 4" role="graphics-symbol" aria-roledescription="bar" d="M81,254.54545454545453h79v145.45454545454547h-79Z" fill="#4c78a8"/><path aria-label="L1 (binned): 835 – 840; Count of Records: 3" role="graphics-symbol" aria-roledescription="bar" d="M161,290.90909090909093h79v109.09090909090907h-79Z" fill="#4c78a8"/><path aria-label="L1 (binned): 845 – 850; Count of Records: 7" role="graphics-symbol" aria-roledescription="bar" d="M321,145.45454545454547h79v254.54545454545453h-79Z" fill="#4c78a8"/><path aria-label="L1 (binned): 860 – 865; Count of Records: 4" role="graphics-symbol" aria-roledescription="bar" d="M561,254.54545454545453h79v145.45454545454547h-79Z" fill="#4c78a8"/><path aria-label="L1 (binned): 855 – 860; Count of Records: 5" role="graphics-symbol" aria-roledescription="bar" d="M481,218.18181818181816h79v181.81818181818184h-79Z" fill="#4c78a8"/><path aria-label="L1 (binned): 865 – 870; Count of Records: 4" role="graphics-symbol" aria-roledescription="bar" d="M641,254.54545454545453h79v145.45454545454547h-79Z" fill="#4c78a8"/><path aria-label="L1 (binned): 870 – 875; Count of Records: 1" role="graphics-symbol" aria-roledescription="bar" d="M721,363.6363636363636h79v36.363636363636374h-79Z" fill="#4c78a8"/></g></g><path class="foreground" aria-hidden="true" d="" display="none"/></g></g></g><defs><clipPath id="clip13"><rect x="0" y="0" width="800" height="400"/></clipPath></defs></svg>